# xmcd
#
# Track frame offsets: 
#        150
#        13435
#        30230
#        47925
#        63112
#        73545
#
# Disc length: 1311 seconds
#
# Revision: 2
# Processed by: cddbd v1.5.2PL0 Copyright (c) Steve Scherf et al.
# Submitted via: ExactAudioCopy v0.95b3
#
DISCID=4a051d06
DTITLE=United - Beast Dominates '92 (EP)
DYEAR=1992
DGENRE=Thrash Metal
TTITLE0=S.R.S.
TTITLE1=Do You Wanna Die?
TTITLE2=Holy Dive Screamer
TTITLE3=Combat!
TTITLE4=Ultra Q
TTITLE5=Yesterday's Hero
EXTD=YEAR: 1992
EXTT0=
EXTT1=
EXTT2=
EXTT3=
EXTT4=
EXTT5=
PLAYORDER=
